<?xml version="1.0" encoding="UTF-8"?><svg id="Layer_2" xmlns="http://www.w3.org/2000/svg" viewBox="0 0 198.21 125.48"><g id="Layer_1-2"><path d="m105.78,50.96h20.85c11.51,0,20.85,9.34,20.85,20.85h0c0,11.51-9.34,20.85-20.85,20.85h-20.85v-41.7h0Z"/><path d="m24.08,0h0C35.58,0,44.93,9.34,44.93,20.85v20.85H3.22v-20.85C3.22,9.34,12.57,0,24.08,0Z" transform="translate(44.93 -3.22) rotate(90)"/><rect x="3.22" y="50.96" width="41.7" height="41.7"/><path d="m75.9,0h0C87.41,0,96.75,9.34,96.75,20.85v20.85h-41.7v-20.85C55.05,9.34,64.39,0,75.9,0Z" transform="translate(96.75 -55.05) rotate(90)"/><polyline points="55.05 50.96 55.05 92.66 96.75 92.66"/><path d="m177.36,0h-20.85v92.69h20.85c11.52,0,20.85-9.34,20.85-20.85V20.85c0-11.52-9.34-20.85-20.85-20.85Z"/><polyline points="147.48 0 105.78 0 105.78 41.7"/><path d="m0,125.48v-13.72h1.16v1.78h.24c.28-.53.72-1.01,1.31-1.43.59-.42,1.42-.63,2.49-.63.87,0,1.65.2,2.36.61.71.41,1.27.98,1.69,1.73.42.75.63,1.64.63,2.68v.24c0,1.03-.21,1.92-.62,2.67-.41.75-.97,1.33-1.68,1.74s-1.5.61-2.38.61c-.71,0-1.31-.1-1.81-.29s-.91-.44-1.22-.75-.56-.62-.73-.94h-.24v5.7H0Zm4.92-4.8c1.11,0,2-.35,2.69-1.06.69-.71,1.03-1.68,1.03-2.92v-.16c0-1.24-.34-2.21-1.03-2.92-.69-.71-1.58-1.06-2.69-1.06s-1.99.35-2.68,1.06c-.69.71-1.04,1.68-1.04,2.92v.16c0,1.24.35,2.21,1.04,2.92.69.71,1.59,1.06,2.68,1.06Z"/><path d="m20.48,121.48v-14h1.2v5.98h.24c.16-.32.38-.62.67-.91.29-.29.66-.52,1.12-.7s1.04-.27,1.73-.27,1.35.15,1.94.44c.59.29,1.06.73,1.41,1.32.35.59.53,1.33.53,2.22v5.92h-1.2v-5.84c0-1.07-.27-1.83-.8-2.29s-1.25-.69-2.14-.69c-1,0-1.83.33-2.5.98s-1,1.65-1,2.98v4.86h-1.2Z"/><path d="m44.72,121.76c-.99,0-1.85-.21-2.59-.63-.74-.42-1.31-1.01-1.72-1.76-.41-.75-.61-1.63-.61-2.63v-.24c0-1,.2-1.88.61-2.63.41-.75.98-1.34,1.72-1.76.74-.42,1.6-.63,2.59-.63s1.85.21,2.59.63,1.31,1.01,1.72,1.76c.41.75.61,1.63.61,2.63v.24c0,1-.2,1.88-.61,2.63-.41.75-.98,1.34-1.72,1.76s-1.6.63-2.59.63Zm0-1.08c1.15,0,2.05-.36,2.72-1.09s1-1.69,1-2.89v-.16c0-1.2-.33-2.16-1-2.89s-1.57-1.09-2.72-1.09-2.04.36-2.71,1.09c-.67.73-1.01,1.69-1.01,2.89v.16c0,1.2.34,2.16,1.01,2.89.67.73,1.58,1.09,2.71,1.09Z"/><path d="m63.34,121.48c-.52,0-.91-.13-1.17-.4-.26-.27-.39-.64-.39-1.12v-7.12h-3.12v-1.08h3.12v-3.64h1.2v3.64h3.4v1.08h-3.4v6.96c0,.4.2.6.6.6h2.28v1.08h-2.52Z"/><path d="m80.7,121.76c-.99,0-1.85-.21-2.59-.63-.74-.42-1.31-1.01-1.72-1.76-.41-.75-.61-1.63-.61-2.63v-.24c0-1,.2-1.88.61-2.63.41-.75.98-1.34,1.72-1.76.74-.42,1.6-.63,2.59-.63s1.85.21,2.59.63,1.31,1.01,1.72,1.76c.41.75.61,1.63.61,2.63v.24c0,1-.2,1.88-.61,2.63-.41.75-.98,1.34-1.72,1.76s-1.6.63-2.59.63Zm0-1.08c1.15,0,2.05-.36,2.72-1.09s1-1.69,1-2.89v-.16c0-1.2-.33-2.16-1-2.89s-1.57-1.09-2.72-1.09-2.04.36-2.71,1.09c-.67.73-1.01,1.69-1.01,2.89v.16c0,1.2.34,2.16,1.01,2.89.67.73,1.58,1.09,2.71,1.09Z"/><path d="m96.22,121.48v-9.72h1.16v1.22h.24c.19-.44.46-.76.83-.96.37-.2.88-.3,1.53-.3h1.14v1.12h-1.28c-.73,0-1.32.21-1.76.62-.44.41-.66,1.06-.66,1.94v6.08h-1.2Z"/><path d="m115.28,121.76c-1,0-1.87-.21-2.61-.63s-1.32-1.01-1.73-1.77c-.41-.76-.62-1.63-.62-2.62v-.24c0-1,.21-1.88.62-2.63.41-.75.98-1.34,1.71-1.76.73-.42,1.56-.63,2.49-.63s1.71.19,2.41.57,1.25.93,1.65,1.64c.4.71.6,1.56.6,2.55v.64h-8.28c.04,1.21.41,2.15,1.11,2.81s1.58.99,2.65.99c.91,0,1.61-.21,2.11-.62s.88-.92,1.15-1.52l1.08.48c-.2.44-.48.87-.83,1.29s-.81.77-1.37,1.04c-.56.27-1.27.41-2.14.41Zm-3.74-5.92h7.04c-.05-1.05-.39-1.86-1.02-2.43-.63-.57-1.43-.85-2.42-.85s-1.78.28-2.42.85c-.64.57-1.03,1.38-1.18,2.43Z"/><path d="m133.3,121.76c-.68,0-1.3-.12-1.85-.35-.55-.23-.99-.58-1.31-1.03s-.48-1-.48-1.64.16-1.19.48-1.62c.32-.43.75-.75,1.3-.96.55-.21,1.15-.32,1.82-.32h3.56v-.78c0-.79-.23-1.4-.68-1.84-.45-.44-1.11-.66-1.98-.66s-1.53.21-2.03.63-.84.98-1.01,1.69l-1.16-.34c.16-.57.41-1.09.76-1.55s.81-.83,1.38-1.1,1.26-.41,2.06-.41c1.23,0,2.18.32,2.85.96.67.64,1.01,1.53,1.01,2.68v4.72c0,.4.19.6.56.6h.94v1.04h-1.28c-.41,0-.74-.12-.98-.37-.24-.25-.36-.58-.36-1.01v-.14h-.2c-.17.29-.4.58-.67.86s-.63.51-1.07.68c-.44.17-.99.26-1.66.26Zm.08-1.08c1.03,0,1.86-.31,2.49-.93.63-.62.95-1.5.95-2.63v-.24h-3.54c-.69,0-1.27.15-1.73.45-.46.3-.69.76-.69,1.39s.24,1.11.71,1.45c.47.34,1.08.51,1.81.51Z"/><path d="m149.36,121.48v-14h1.2v14h-1.2Z"/><path d="m165.94,121.76c-.97,0-1.84-.19-2.61-.56s-1.37-.92-1.8-1.63c-.43-.71-.65-1.58-.65-2.59v-.38h1.24v.4c0,1.13.35,2.02,1.06,2.67.71.65,1.63.97,2.76.97s2.04-.31,2.68-.92c.64-.61.96-1.39.96-2.32v-.12c0-.69-.16-1.25-.49-1.68-.33-.43-.77-.74-1.32-.95-.55-.21-1.16-.31-1.83-.31h-2.06v-1.68l5.68-3.86v-.2h-8.36v-1.12h9.6v1.8l-5.62,3.82v.2h1.1c.87,0,1.64.15,2.32.45.68.3,1.22.74,1.62,1.32.4.58.6,1.3.6,2.17v.2c0,.87-.2,1.62-.6,2.27-.4.65-.97,1.15-1.7,1.51-.73.36-1.59.54-2.58.54Z"/><path d="m180.46,121.48v-1.16h2v-11.68h-2v-1.16h5.32c1.83,0,3.25.46,4.27,1.39,1.02.93,1.53,2.37,1.53,4.33v2.58c0,1.96-.51,3.4-1.53,4.32-1.02.92-2.44,1.38-4.27,1.38h-5.32Zm3.28-1.16h2.04c1.47,0,2.59-.35,3.36-1.06s1.16-1.85,1.16-3.42v-2.7c0-1.59-.39-2.73-1.16-3.43-.77-.7-1.89-1.05-3.36-1.05h-2.04v11.66Z"/></g></svg>